<?xml version="1.0" encoding="UTF-8"?>
<svg width="100px" height="100px" viewBox="0 0 100 100" version="1.1" xmlns="http://www.w3.org/2000/svg" xmlns:xlink="http://www.w3.org/1999/xlink">
    <title>Artboard</title>
    <g id="Artboard" stroke="none" stroke-width="1" fill="none" fill-rule="evenodd">
        <path d="M24.25,34.25 C21.3460938,34.25 19,36.5960938 19,39.5 C19,42.4039062 21.3460938,44.75 24.25,44.75 L24.25,50 C24.25,62.6984375 33.2734375,73.296875 45.25,75.725 L45.25,86.75 C45.25,89.6539063 47.5960938,92 50.5,92 C53.4039062,92 55.75,89.6539063 55.75,86.75 L55.75,75.725 C67.7265625,73.296875 76.75,62.6984375 76.75,50 L76.75,44.75 C79.6539063,44.75 82,42.4039062 82,39.5 C82,36.5960938 79.6539063,34.25 76.75,34.25 L24.25,34.25 Z" id="Shape" fill="#A34C87" fill-rule="nonzero"></path>
        <path d="M34.75,8 C31.8460938,8 29.5,10.3460937 29.5,13.25 L29.5,29 L40,29 L40,13.25 C40,10.3460937 37.6539062,8 34.75,8 Z M66.25,8 C63.3460938,8 61,10.3460937 61,13.25 L61,29 L71.5,29 L71.5,13.25 C71.5,10.3460937 69.1539063,8 66.25,8 Z" id="Combined-Shape" fill="#00D7BB" fill-rule="nonzero"></path>
    </g>
</svg>